General
Format                           : MPEG-4
Format profile                   : Base Media / Version 2
Codec ID                         : mp42
File size                        : 86.3MiB - 134 MiB
Duration                         : 41mn 36s - 1h 4mn
Overall bit rate                 : 290 Kbps

Video
ID                               : 1
Format                           : AVC
Format/Info                      : Advanced Video Codec
Format profile                   : Baseline@L2.1
Format settings, CABAC           : No
Format settings, ReFrames        : 2 frames
Codec ID                         : avc1
Codec ID/Info                    : Advanced Video Coding
Duration                         : 41mn 36s - 1h 4mn
Bit rate mode                    : Variable
Bit rate                         : 240 Kbps
Width                            : 480 pixels
Height                           : 272 pixels
Display aspect ratio             : 16:9
Frame rate mode                  : Constant
Frame rate                       : 25.000 fps
Color space                      : YUV
Chroma subsampling               : 4:2:0
Bit depth                        : 8 bits
Scan type                        : Progressive
Bits/(Pixel*Frame)               : 0.074
Stream size                      : 71.4 MiB (83%) - 111 MiB (83%)
Writing library                  : x264 core 79

Audio
ID                               : 2
Format                           : AAC
Format/Info                      : Advanced Audio Codec
Format profile                   : LC
Codec ID                         : 40
Duration                         : 41mn 36s - 1h 4mn
Bit rate mode                    : Variable
Bit rate                         : 48.0 Kbps
Maximum bit rate                 : 67.7 Kbps
Channel(s)                       : 2 channels
Channel positions                : Front: L R
Sampling rate                    : 24.0 KHz
Compression mode                 : Lossy
Stream size                      : 14.3 MiB (17%) - 22.1 MiB (17%)



Doctor.Who.2005.S05E01.The.Eleventh.Hour.HDTV.272p.H264.AAC-k3n.m4v
Doctor.Who.2005.S05E02.The.Beast.Below.HDTV.272p.H264.AAC-k3n.m4v
Doctor.Who.2005.S05E03.Victory.of.the.Daleks.HDTV.272p.H264.AAC-k3n.m4v
Doctor.Who.2005.S05E04.The.Time.of.Angels.HDTV.272p.H264.AAC-k3n.m4v
Doctor.Who.2005.S05E05.Flesh.and.Stone.HDTV.272p.H264.AAC-k3n.m4v
Doctor.Who.2005.S05E06.The.Vampires.of.Venice.HDTV.272p.H264.AAC-k3n.m4v
Doctor.Who.2005.S05E07.Amy's.Choice.HDTV.272p.H264.AAC-k3n.m4v
Doctor.Who.2005.S05E08.The.Hungry.Earth.HDTV.272p.H264.AAC-k3n.m4v
Doctor.Who.2005.S05E09.Cold.Blood.HDTV.272p.H264.AAC-k3n.m4v
Doctor.Who.2005.S05E10.Vincent.and.the.Doctor.HDTV.272p.H264.AAC-k3n.m4v
Doctor.Who.2005.S05E11.The.Lodger.HDTV.272p.H264.AAC-k3n.m4v
Doctor.Who.2005.S05E12.The.Pandorica.Opens.HDTV.272p.H264.AAC-k3n.m4v
Doctor.Who.2005.S05E13.The.Big.Bang.HDTV.272p.H264.AAC-k3n.m4v
Doctor.Who.2005.S05E14.A.Christmas.Carol.[special].HDTV.272p.H264.AAC-k3n.m4v